<svg width="124" height="120" viewBox="0 0 124 120" fill="none" xmlns="http://www.w3.org/2000/svg">
<g clip-path="url(#clip0_1_3)">
<path d="M10.075 92.25V47.25H0.775024V39.75H17.825V92.25H10.075Z" fill="#F78F8F"/>
<path d="M17.05 40.5V91.5H10.85V48V46.5H9.3H1.55V40.5H17.05ZM18.6 39H0V48H9.3V93H18.6V39Z" fill="#C74343"/>
<path d="M22.475 92.25V35.25H10.075V27.75H30.225V92.25H22.475Z" fill="#F78F8F"/>
<path d="M29.45 28.5V91.5H23.25V36V34.5H21.7H10.85V28.5H29.45ZM31 27H9.29999V36H21.7V93H31V27Z" fill="#C74343"/>
<path d="M71.3 92.25C52.9248 92.25 37.975 77.7825 37.975 60C37.975 42.2175 52.9248 27.75 71.3 27.75C89.4164 27.75 104.203 41.8125 104.616 59.25H96.8642C96.4534 45.948 85.1431 35.25 71.3 35.25C57.1981 35.25 45.725 46.353 45.725 60C45.725 73.647 57.1981 84.75 71.3 84.75H123.225V92.25H71.3Z" fill="#F78F8F"/>
<path d="M71.3 28.5C88.7282 28.5 103.002 41.8245 103.814 58.5H97.6051C96.7991 45.135 85.3089 34.5 71.3 34.5C56.7703 34.5 44.95 45.939 44.95 60C44.95 74.061 56.7703 85.5 71.3 85.5H122.45V91.5H71.3C53.3526 91.5 38.75 77.3685 38.75 60C38.75 42.6315 53.3526 28.5 71.3 28.5ZM71.3 27C52.497 27 37.2 41.8035 37.2 60C37.2 78.1965 52.497 93 71.3 93H124V84H71.3C57.6259 84 46.5 73.233 46.5 60C46.5 46.767 57.6259 36 71.3 36C84.9741 36 96.1 46.767 96.1 60H105.4C105.4 41.8035 90.1031 27 71.3 27Z" fill="#C74343"/>
<path d="M71.3 77.25C61.4715 77.25 53.475 69.5115 53.475 60C53.475 50.4885 61.4715 42.75 71.3 42.75C80.8682 42.75 88.7019 50.085 89.108 59.25H81.3456C80.9488 54.222 76.5948 50.25 71.3 50.25C65.7448 50.25 61.225 54.624 61.225 60C61.225 65.376 65.7448 69.75 71.3 69.75H123.225V77.25H71.3Z" fill="#F78F8F"/>
<path d="M71.3 43.5C80.18 43.5 87.4944 50.1015 88.2803 58.5H82.04C81.2851 53.418 76.7576 49.5 71.3 49.5C65.317 49.5 60.45 54.21 60.45 60C60.45 65.79 65.317 70.5 71.3 70.5H122.45V76.5H71.3C61.8993 76.5 54.25 69.0975 54.25 60C54.25 50.9025 61.8993 43.5 71.3 43.5ZM71.3 42C61.0437 42 52.7 50.0745 52.7 60C52.7 69.9255 61.0437 78 71.3 78H124V69H71.3C66.1711 69 62 64.9635 62 60C62 55.0365 66.1711 51 71.3 51C76.429 51 80.6 55.0365 80.6 60H89.9C89.9 50.0745 81.5564 42 71.3 42Z" fill="#C74343"/>
</g>
<defs>
<clipPath id="clip0_1_3">
<rect width="124" height="120" fill="white"/>
</clipPath>
</defs>
</svg>
